<svg width="19.999268" height="19.999023" viewBox="0 0 19.9993 19.999" fill="none" xmlns="http://www.w3.org/2000/svg" xmlns:xlink="http://www.w3.org/1999/xlink">
	<desc>
			Created with Pixso.
	</desc>
	<defs/>
	<path id="Vector" d="M11.02 0C12.15 0 12.72 0 13.21 0.02L13.4 0.02C13.63 0.03 13.85 0.04 14.12 0.05C15.18 0.1 15.91 0.27 16.54 0.52C17.2 0.77 17.76 1.12 18.32 1.67C18.87 2.23 19.21 2.79 19.47 3.44C19.72 4.08 19.88 4.81 19.93 5.87C19.95 6.14 19.96 6.36 19.96 6.58L19.97 6.78C19.98 7.27 19.99 7.84 19.99 8.97L19.99 9.71C19.99 9.8 19.99 9.9 19.99 9.99L19.99 10.28L19.99 11.02C19.99 12.15 19.99 12.72 19.97 13.21L19.96 13.41C19.96 13.63 19.95 13.85 19.93 14.12C19.89 15.18 19.72 15.91 19.47 16.54C19.22 17.2 18.87 17.76 18.32 18.32C17.76 18.87 17.2 19.21 16.54 19.47C15.91 19.72 15.18 19.88 14.12 19.93C13.85 19.95 13.63 19.96 13.4 19.96L13.21 19.97C12.72 19.98 12.15 19.99 11.02 19.99L10.28 19.99C10.19 19.99 10.09 19.99 9.99 19.99L9.71 19.99L8.97 19.99C7.84 19.99 7.27 19.99 6.78 19.97L6.58 19.96C6.36 19.96 6.14 19.95 5.87 19.93C4.81 19.89 4.08 19.72 3.44 19.47C2.79 19.21 2.23 18.87 1.67 18.32C1.12 17.76 0.77 17.2 0.52 16.54C0.27 15.91 0.1 15.18 0.05 14.12C0.04 13.85 0.03 13.63 0.02 13.41L0.02 13.21C0 12.72 0 12.15 0 11.02L0 8.97C0 7.84 0 7.27 0.02 6.78L0.02 6.58C0.03 6.36 0.04 6.14 0.05 5.87C0.1 4.81 0.27 4.08 0.52 3.44C0.77 2.79 1.12 2.23 1.67 1.67C2.23 1.12 2.79 0.77 3.44 0.52C4.08 0.27 4.81 0.1 5.87 0.05C6.14 0.04 6.36 0.03 6.58 0.03L6.78 0.02C7.27 0 7.84 0 8.97 0L11.02 0ZM9.99 4.99C7.23 4.99 4.99 7.23 4.99 9.99C4.99 12.76 7.23 14.99 9.99 14.99C12.76 14.99 14.99 12.75 14.99 9.99C14.99 7.23 12.75 4.99 9.99 4.99ZM9.99 6.99C11.65 6.99 12.99 8.34 12.99 9.99C12.99 11.65 11.65 12.99 9.99 12.99C8.34 12.99 6.99 11.65 6.99 9.99C6.99 8.34 8.34 6.99 9.99 6.99ZM15.24 3.49C14.56 3.49 13.99 4.05 13.99 4.74C13.99 5.43 14.55 5.99 15.24 5.99C15.93 5.99 16.49 5.43 16.49 4.74C16.49 4.05 15.93 3.49 15.24 3.49Z" fill="#FFFFFF" fill-opacity="1.000000" fill-rule="evenodd"/>
</svg>
