<svg width="19.060059" height="18.000977" viewBox="0 0 19.0601 18.001" fill="none" xmlns="http://www.w3.org/2000/svg" xmlns:xlink="http://www.w3.org/1999/xlink">
	<desc>
			Created with Pixso.
	</desc>
	<defs/>
	<path id="Vector" d="M4 2C3.99 2.81 3.5 3.54 2.75 3.85C1.99 4.15 1.13 3.97 0.56 3.39C-0.01 2.8 -0.16 1.93 0.17 1.19C0.49 0.44 1.24 -0.03 2.06 0C3.14 0.03 4 0.91 4 2ZM4.06 5.48L0.06 5.48L0.06 18L4.06 18L4.06 5.48ZM10.38 5.48L6.4 5.48L6.4 18L10.34 18L10.34 11.43C10.34 7.77 15.11 7.43 15.11 11.43L15.11 18L19.06 18L19.06 10.07C19.06 3.9 12 4.13 10.34 7.16L10.38 5.48Z" fill="#FFFFFF" fill-opacity="1.000000" fill-rule="nonzero"/>
</svg>
