<svg width="20.000000" height="20.000000" viewBox="0 0 20 20" fill="none" xmlns="http://www.w3.org/2000/svg" xmlns:xlink="http://www.w3.org/1999/xlink">
	<desc>
			Created with Pixso.
	</desc>
	<defs/>
	<path id="Vector" d="M20 10C20 15.52 15.52 20 10 20C4.47 20 0 15.52 0 10C0 4.47 4.47 0 10 0C15.52 0 20 4.47 20 10ZM10.35 7.38C9.38 7.78 7.44 8.62 4.52 9.89C4.05 10.08 3.8 10.26 3.78 10.44C3.74 10.75 4.12 10.87 4.64 11.03C4.71 11.05 4.78 11.07 4.86 11.1C5.37 11.26 6.06 11.46 6.41 11.47C6.74 11.47 7.1 11.34 7.5 11.07C10.22 9.23 11.63 8.3 11.72 8.28C11.78 8.26 11.86 8.25 11.92 8.3C11.98 8.35 11.98 8.45 11.97 8.48C11.93 8.64 10.44 10.03 9.66 10.75C9.43 10.96 9.21 11.18 8.98 11.4C8.5 11.86 8.15 12.2 9 12.76C9.86 13.33 10.73 13.89 11.57 14.49C11.98 14.79 12.35 15.05 12.81 15.01C13.08 14.99 13.36 14.73 13.5 13.99C13.83 12.21 14.48 8.38 14.63 6.8C14.64 6.66 14.63 6.48 14.61 6.4C14.6 6.32 14.57 6.21 14.47 6.13C14.35 6.03 14.17 6.01 14.08 6.02C13.71 6.02 13.13 6.22 10.35 7.38Z" fill="#FFFFFF" fill-opacity="1.000000" fill-rule="nonzero"/>
</svg>
