<svg width="297" height="284" viewBox="0 0 297 284" fill="none" xmlns="http://www.w3.org/2000/svg">
<path d="M138.153 6.49052C142.756 -1.63859 154.465 -1.6386 159.049 6.4905L199.115 77.5464C200.826 80.5806 203.772 82.7196 207.188 83.4073L287.274 99.5304C296.445 101.377 300.056 112.546 293.707 119.427L238.365 179.404C235.994 181.973 234.86 185.447 235.258 188.917L244.544 269.878C245.609 279.16 236.122 286.056 227.626 282.175L153.306 248.225C150.142 246.78 146.505 246.78 143.338 248.225L68.9393 282.175C60.4341 286.056 50.9632 279.16 52.0494 269.878L61.5227 188.917C61.9288 185.447 60.8024 181.973 58.4377 179.404L3.23391 119.427C-3.09944 112.546 0.537825 101.377 9.71335 99.5304L89.8363 83.4073C93.2537 82.7196 96.205 80.5806 97.9229 77.5464L138.153 6.49052Z" fill="#EDEDED"/>
</svg>
