<svg width="195" height="213" viewBox="0 0 195 213" fill="none" xmlns="http://www.w3.org/2000/svg">
<path opacity="0.15" d="M94.3289 1.41176C68.0557 20.2726 30.4437 20.8813 8.47855 18.0337C5.10503 17.5963 2.42241 21.2439 3.83768 24.3372C23.5426 67.4065 11.3518 103.293 1.27703 118.07C0.505146 119.202 0.293129 120.644 0.787093 121.922C24.8784 184.256 74.3374 208.411 96.8888 212.882C97.3054 212.965 97.7211 212.971 98.1416 212.912C156.397 204.707 186.194 148.335 194.471 119.259C194.819 118.037 194.516 116.743 193.75 115.728C172.058 86.9707 181.646 47.5751 191.536 25.9929C192.885 23.0492 190.544 19.5732 187.314 19.8035C137.924 23.3261 110.507 10.814 100.283 1.83961C98.6272 0.386506 96.1183 0.127202 94.3289 1.41176Z" fill="#FBD883"/>
</svg>
